<svg width="32" height="32" viewBox="0 0 32 32" fill="none" xmlns="http://www.w3.org/2000/svg">
<path d="M16 32C24.8366 32 32 24.8366 32 16C32 7.16344 24.8366 0 16 0C7.16344 0 0 7.16344 0 16C0 24.8366 7.16344 32 16 32Z" fill="#F0F0F0"/>
<path d="M16.0003 0C9.65689 0 4.17589 3.69156 1.58789 9.0435H30.4126C27.8246 3.69156 22.3436 0 16.0003 0Z" fill="#FF9811"/>
<path d="M16.0003 31.9986C22.3436 31.9986 27.8246 28.307 30.4126 22.9551H1.58789C4.17589 28.307 9.65689 31.9986 16.0003 31.9986Z" fill="#6DA544"/>
<path d="M16 21.5C12.9672 21.5 10.5 19.0328 10.5 16C10.5 12.9672 12.9672 10.5 16 10.5C19.0328 10.5 21.5 12.9672 21.5 16C21.5 19.0328 19.0328 21.5 16 21.5ZM16 11.5232C13.5312 11.5232 11.5232 13.5312 11.5232 16C11.5232 18.4688 13.5312 20.4768 16 20.4768C18.4688 20.4768 20.4768 18.4688 20.4768 16C20.4768 13.5312 18.4688 11.5232 16 11.5232Z" fill="#41479B"/>
<path d="M16.0005 16.624C16.3448 16.624 16.624 16.3448 16.624 16.0005C16.624 15.6561 16.3448 15.377 16.0005 15.377C15.6561 15.377 15.377 15.6561 15.377 16.0005C15.377 16.3448 15.6561 16.624 16.0005 16.624Z" fill="#41479B"/>
<path d="M16.0001 16.0951L14.4155 16.2551L11.0117 16.0951V15.908L14.4155 15.748L16.0001 15.908V16.0951Z" fill="#41479B"/>
<path d="M16 16.0951L17.5846 16.2551L20.9884 16.0951V15.908L17.5846 15.748L16 15.908V16.0951Z" fill="#41479B"/>
<path d="M15.9061 16.0001L15.7461 14.4155L15.9061 11.0117H16.0931L16.2531 14.4155L16.0931 16.0001H15.9061Z" fill="#41479B"/>
<path d="M15.9061 16L15.7461 17.5846L15.9061 20.9884H16.0931L16.2531 17.5846L16.0931 16H15.9061Z" fill="#41479B"/>
<path d="M15.9336 16.0657L14.7 15.0585L12.4062 12.5385L12.5385 12.4062L15.0585 14.7L16.0657 15.9336L15.9336 16.0657Z" fill="#41479B"/>
<path d="M15.9336 16.0657L16.9408 17.2993L19.4608 19.5931L19.5931 19.4608L17.2993 16.9408L16.0657 15.9336L15.9336 16.0657Z" fill="#41479B"/>
<path d="M15.9336 15.9336L16.9408 14.7L19.4608 12.4062L19.5931 12.5385L17.2993 15.0585L16.0657 16.0657L15.9336 15.9336Z" fill="#41479B"/>
<path d="M15.9336 15.9336L14.7 16.9408L12.4062 19.4608L12.5385 19.5931L15.0585 17.2993L16.0657 16.0657L15.9336 15.9336Z" fill="#41479B"/>
<path d="M16.0357 16.087L14.6329 16.8412L11.4271 17.9959L11.3555 17.8231L14.439 16.3727L15.9641 15.9141L16.0357 16.087Z" fill="#41479B"/>
<path d="M16.0355 16.0858L17.5606 15.6271L20.6441 14.1767L20.5725 14.0039L17.3667 15.1587L15.9639 15.9128L16.0355 16.0858Z" fill="#41479B"/>
<path d="M15.9138 16.0357L15.1596 14.6329L14.0049 11.4271L14.1777 11.3555L15.6281 14.439L16.0867 15.9641L15.9138 16.0357Z" fill="#41479B"/>
<path d="M15.9131 16.0365L16.3718 17.5616L17.8221 20.6451L17.9949 20.5734L16.8402 17.3677L16.086 15.9648L15.9131 16.0365Z" fill="#41479B"/>
<path d="M15.9641 16.0858L14.439 15.6271L11.3555 14.1767L11.4271 14.0039L14.6329 15.1587L16.0357 15.9128L15.9641 16.0858Z" fill="#41479B"/>
<path d="M15.9639 16.087L17.3667 16.8412L20.5725 17.9959L20.6441 17.8231L17.5606 16.3727L16.0355 15.9141L15.9639 16.087Z" fill="#41479B"/>
<path d="M15.9131 15.9641L16.3718 14.439L17.8221 11.3555L17.9949 11.4271L16.8402 14.6329L16.086 16.0357L15.9131 15.9641Z" fill="#41479B"/>
<path d="M15.9138 15.9648L15.1596 17.3677L14.0049 20.5734L14.1777 20.6451L15.6281 17.5616L16.0867 16.0365L15.9138 15.9648Z" fill="#41479B"/>
</svg>
