<svg width="32" height="32" viewBox="0 0 32 32" fill="#000000" xmlns="http://www.w3.org/2000/svg">
    <path fill-rule="evenodd" clip-rule="evenodd" d="M13.7968 29.6612C13.7227 29.6612 13.6485 29.6547 13.5739 29.6418C11.62 29.2952 9.79736 28.5475 8.1579 27.4182C7.85228 27.2079 7.65755 26.8747 7.62366 26.5043C7.58941 26.1313 7.72214 25.7653 7.98663 25.5005L8.00088 25.4863C8.18957 25.2976 8.18957 24.991 8.00088 24.8027L7.33008 24.1321C7.23862 24.0409 7.1177 23.9907 6.98837 23.9907C6.85911 23.9907 6.73782 24.0409 6.64666 24.1321L6.60812 24.1705C6.34628 24.4323 5.98324 24.5651 5.61429 24.534C5.24651 24.5033 4.91351 24.3135 4.70032 24.0136C3.53471 22.3741 2.7559 20.543 2.38386 18.572C2.31403 18.2013 2.41154 17.8226 2.65183 17.5328C2.89078 17.2451 3.2415 17.0797 3.61613 17.0797L3.72531 17.0796C3.99165 17.0796 4.20832 16.8627 4.20832 16.5964V15.6478C4.20832 15.3818 3.99143 15.1649 3.72531 15.1649H3.5683C3.19839 15.1649 2.849 15.0027 2.60901 14.7206C2.3719 14.4411 2.26995 14.0742 2.32894 13.7137C2.66194 11.6991 3.41867 9.82254 4.57904 8.13593C4.78928 7.82996 5.12332 7.63486 5.49404 7.60068C5.8669 7.56783 6.23305 7.6993 6.4974 7.96379L6.64622 8.11261C6.83483 8.30129 7.14148 8.30129 7.32964 8.11261L8.00044 7.44145C8.18906 7.2527 8.18906 6.94643 8.00044 6.75782L7.82785 6.58516C7.56594 6.32385 7.43417 5.96288 7.46533 5.5943C7.49611 5.2244 7.6887 4.88764 7.99255 4.67224C9.67719 3.47631 11.5605 2.68876 13.589 2.3314C13.951 2.26777 14.3209 2.36691 14.6041 2.60453C14.89 2.84459 15.0533 3.19552 15.0533 3.56859V3.83729C15.0533 4.10385 15.2701 4.32051 15.5368 4.32051L16.4857 4.32036C16.7521 4.32036 16.9687 4.10348 16.9687 3.83707V3.56837C16.9687 3.19589 17.1326 2.84459 17.4185 2.60438C17.7012 2.36676 18.0715 2.26777 18.4336 2.33126C20.4621 2.68861 22.3454 3.47617 24.03 4.67209C24.3335 4.88764 24.5261 5.22374 24.5573 5.59416C24.588 5.96273 24.4563 6.32414 24.1947 6.58502L24.0216 6.75797C23.9305 6.84929 23.8802 6.97042 23.8802 7.09945C23.8802 7.22886 23.9305 7.34999 24.0216 7.44123L24.6924 8.11239C24.8816 8.30114 25.1881 8.30114 25.3762 8.11239L25.525 7.96357C25.7895 7.69915 26.155 7.56591 26.5284 7.60105C26.8988 7.63471 27.2326 7.82996 27.4434 8.13579C28.6037 9.82202 29.361 11.6986 29.6931 13.7136C29.7525 14.0739 29.6507 14.4413 29.4131 14.7209C29.1736 15.0025 28.8242 15.1649 28.4538 15.1649H28.2974C28.0308 15.1649 27.814 15.3818 27.814 15.6478V16.5964C27.814 16.8629 28.0308 17.0796 28.2974 17.0796H28.4067C28.7806 17.0796 29.1321 17.2449 29.3708 17.5326C29.6113 17.8226 29.7086 18.2015 29.6387 18.5718C29.2675 20.5431 28.4883 22.3739 27.3223 24.0133C27.1094 24.3133 26.7758 24.5032 26.4086 24.5339C26.0382 24.5655 25.6766 24.4327 25.4148 24.1703L25.3762 24.132C25.1875 23.9432 24.881 23.9432 24.6924 24.132L24.0216 24.8026C23.8335 24.9913 23.8335 25.2979 24.0216 25.4861L24.0359 25.5004C24.3009 25.7652 24.4332 26.1313 24.3989 26.5042C24.3652 26.8746 24.1705 27.2077 23.8646 27.418C22.2251 28.5469 20.4029 29.2951 18.4487 29.6416C18.0796 29.7071 17.7033 29.607 17.4167 29.3664C17.1326 29.128 16.969 28.7788 16.969 28.4071C16.969 28.1405 16.7522 27.9238 16.4861 27.9238L15.537 27.924C15.2703 27.924 15.0535 28.1409 15.0535 28.4073C15.0535 28.7785 14.8904 29.1281 14.6059 29.3665C14.3774 29.5592 14.0908 29.6612 13.7968 29.6612ZM6.98836 23.2199C7.30926 23.2199 7.63052 23.3419 7.87524 23.5869L8.54604 24.2575C9.03524 24.7468 9.03524 25.5426 8.54604 26.032L8.53209 26.0463C8.42985 26.1483 8.37854 26.2899 8.39161 26.434C8.40504 26.5781 8.47702 26.7022 8.59587 26.7836C10.1439 27.8494 11.8645 28.5559 13.7092 28.8831C13.8536 28.9092 14.0001 28.8702 14.1113 28.7766C14.2223 28.6836 14.283 28.5525 14.283 28.4081C14.283 27.7161 14.8458 27.1538 15.538 27.1538L16.4866 27.1534C17.1782 27.1534 17.741 27.7163 17.741 28.4077C17.741 28.5523 17.8026 28.6833 17.9128 28.7764C18.0242 28.8699 18.1708 28.9083 18.3148 28.8828C20.1599 28.5557 21.8806 27.849 23.4286 26.7833C23.5465 26.7021 23.6189 26.5778 23.6324 26.4337C23.6458 26.2896 23.5947 26.1481 23.4923 26.046L23.478 26.0317C22.9888 25.5424 22.9888 24.7466 23.478 24.2572L24.1488 23.5865C24.638 23.0972 25.4341 23.0972 25.9228 23.5865L25.9613 23.625C26.0622 23.7257 26.2019 23.7772 26.3455 23.7651C26.4885 23.7535 26.6129 23.6825 26.6959 23.5661C27.7964 22.0179 28.5318 20.2893 28.8832 18.4282C28.9106 18.2837 28.8727 18.1362 28.7791 18.0236C28.6863 17.9111 28.5544 17.8497 28.4087 17.8497L28.2996 17.8502C27.6074 17.8502 27.0446 17.2873 27.0446 16.5959V15.6474C27.0446 14.9559 27.6074 14.3933 28.2996 14.3933H28.4561C28.5991 14.3933 28.7349 14.3305 28.8273 14.2216C28.9192 14.1135 28.9569 13.9776 28.934 13.8386C28.62 11.9365 27.9054 10.1651 26.8101 8.57279C26.7287 8.45424 26.6038 8.3816 26.4594 8.36817C26.3155 8.35525 26.1741 8.40582 26.0713 8.50798L25.9225 8.6568C25.4337 9.14614 24.6376 9.14577 24.1485 8.6568L23.4777 7.98616C22.9885 7.49689 22.9885 6.70114 23.4777 6.21165L23.6508 6.03891C23.7522 5.93719 23.802 5.80181 23.7896 5.65823C23.778 5.51466 23.7029 5.384 23.5846 5.29992C21.9935 4.17058 20.2158 3.42679 18.3004 3.08973C18.1607 3.065 18.0242 3.10236 17.9144 3.19404C17.8038 3.28712 17.7405 3.42251 17.7405 3.56711V3.83581C17.7405 4.52771 17.1777 5.09013 16.4861 5.09013H15.537C14.8449 5.09013 14.2821 4.52719 14.2821 3.83581V3.56711C14.2821 3.42251 14.2188 3.28712 14.1081 3.19404C13.9989 3.10236 13.8618 3.06523 13.7227 3.08973C11.8073 3.42679 10.0291 4.17058 8.43848 5.29992C8.32015 5.38385 8.24559 5.51451 8.23297 5.65823C8.22086 5.80152 8.27032 5.93742 8.37212 6.03891L8.54471 6.21165C9.03421 6.70092 9.03421 7.49667 8.54471 7.98616L7.87391 8.6568C7.38515 9.14577 6.589 9.14614 6.09994 8.6568L5.95112 8.50798C5.84918 8.40596 5.70737 8.35481 5.56305 8.36817C5.41866 8.38109 5.29457 8.45387 5.21263 8.57279C4.11684 10.1651 3.40175 11.9365 3.08824 13.8386C3.06528 13.9772 3.10352 14.1133 3.19543 14.2216C3.28822 14.3307 3.42309 14.3933 3.56615 14.3933H3.72317C4.41479 14.3933 4.97759 14.9562 4.97759 15.6474V16.5959C4.97759 17.2877 4.41479 17.8502 3.72317 17.8502H3.61384C3.46768 17.8502 3.33635 17.912 3.24349 18.0242C3.15055 18.1364 3.11201 18.2842 3.13984 18.4288C3.49063 20.2898 4.22647 22.0184 5.32668 23.5666C5.40944 23.683 5.53434 23.754 5.67711 23.7656C5.82017 23.7777 5.95984 23.7262 6.06127 23.6255L6.0998 23.587C6.34606 23.3419 6.66695 23.2199 6.98836 23.2199Z" />
    <path fill-rule="evenodd" clip-rule="evenodd" d="M20.5607 22.0782C19.4979 22.0782 18.6332 21.2133 18.6332 20.1506C18.6332 19.0879 19.4979 18.223 20.5607 18.223C21.6236 18.223 22.4883 19.0879 22.4883 20.1506C22.4883 21.2133 21.6236 22.0782 20.5607 22.0782ZM20.5607 18.9944C19.9229 18.9944 19.4043 19.5131 19.4043 20.151C19.4043 20.7888 19.9229 21.3075 20.5607 21.3075C21.1986 21.3075 21.7177 20.7888 21.7177 20.151C21.7177 19.5131 21.1983 18.9944 20.5607 18.9944Z" />
    <path fill-rule="evenodd" clip-rule="evenodd" d="M12.0789 17.4516C10.5906 17.4516 9.37995 16.241 9.37995 14.7529C9.37995 13.2654 10.5906 12.0547 12.0789 12.0547C13.5672 12.0547 14.7779 13.2654 14.7779 14.7529C14.7779 16.241 13.5672 17.4516 12.0789 17.4516ZM12.0789 12.8253C11.016 12.8253 10.1514 13.6903 10.1514 14.7529C10.1514 15.8161 11.016 16.6805 12.0789 16.6805C13.1417 16.6805 14.0068 15.8161 14.0068 14.7529C14.0073 13.6903 13.1417 12.8253 12.0789 12.8253Z" />
    <path fill-rule="evenodd" clip-rule="evenodd" d="M20.1756 15.1385C19.3253 15.1385 18.6332 14.4466 18.6332 13.5964C18.6332 12.7462 19.3253 12.0547 20.1756 12.0547C21.0258 12.0547 21.718 12.7467 21.718 13.5964C21.7181 14.4471 21.026 15.1385 20.1756 15.1385ZM20.1756 12.8255C19.7506 12.8255 19.4046 13.1717 19.4046 13.5966C19.4046 14.0215 19.7506 14.3677 20.1756 14.3677C20.6005 14.3677 20.9465 14.0215 20.9465 13.5966C20.9465 13.1717 20.601 12.8255 20.1756 12.8255Z" />
    <path fill-rule="evenodd" clip-rule="evenodd" d="M10.4212 22.2708C10.3397 22.2708 10.2586 22.2452 10.1888 22.193C10.0188 22.0644 9.98539 21.823 10.1137 21.6529L11.4242 19.9178C11.553 19.7477 11.7946 19.7141 11.9645 19.8426C12.1345 19.9711 12.168 20.2125 12.0396 20.3826L10.7291 22.1177C10.6532 22.218 10.5379 22.2708 10.4212 22.2708Z" />
    <path fill-rule="evenodd" clip-rule="evenodd" d="M18.0936 17.2588C18.0047 17.2588 17.9149 17.228 17.842 17.1653L16.4543 15.9702C16.293 15.8313 16.2748 15.5877 16.4135 15.4262C16.5521 15.2648 16.796 15.2467 16.9573 15.3855L18.3449 16.5807C18.5067 16.7195 18.5244 16.9632 18.3857 17.1246C18.3096 17.2135 18.2019 17.2588 18.0936 17.2588Z" />
    <path fill-rule="evenodd" clip-rule="evenodd" d="M18.7491 24.0059H16.7057C16.4928 24.0059 16.3197 23.8332 16.3197 23.62C16.3197 23.4067 16.4923 23.2345 16.7057 23.2345L18.7491 23.2343C18.962 23.2343 19.1351 23.4066 19.1351 23.6198C19.1351 23.8331 18.962 24.0059 18.7491 24.0059Z" />
    <path fill-rule="evenodd" clip-rule="evenodd" d="M19.0189 10.9745C18.9144 10.9745 18.8103 10.9321 18.7341 10.8491C18.5906 10.692 18.6013 10.4479 18.7589 10.3043L20.1084 9.07026C20.2653 8.92698 20.5094 8.93746 20.6529 9.09492C20.7965 9.25244 20.786 9.49612 20.6282 9.63969L19.2792 10.8737C19.205 10.9413 19.1117 10.9745 19.0189 10.9745Z" />
</svg>
