<svg width="32" height="32" viewBox="0 0 32 32" fill="none" xmlns="http://www.w3.org/2000/svg">
<path fill-rule="evenodd" clip-rule="evenodd" d="M14.0552 29.1729C13.9811 29.1729 13.9069 29.1664 13.8323 29.1535C11.8783 28.8069 10.0558 28.0592 8.41628 26.9299C8.11067 26.7196 7.91593 26.3864 7.88205 26.016C7.8478 25.643 7.98053 25.277 8.24502 25.0122L8.25927 24.998C8.44795 24.8093 8.44795 24.5027 8.25927 24.3144L7.58847 23.6438C7.49701 23.5526 7.37609 23.5024 7.24676 23.5024C7.1175 23.5024 6.99621 23.5526 6.90505 23.6438L6.86651 23.6822C6.60467 23.944 6.24162 24.0768 5.87267 24.0457C5.5049 24.015 5.1719 23.8252 4.95871 23.5252C3.79309 21.8857 3.01429 20.0547 2.64225 18.0837C2.57242 17.7129 2.66993 17.3343 2.91021 17.0445C3.14917 16.7568 3.49989 16.5914 3.87452 16.5914L3.9837 16.5913C4.25004 16.5913 4.4667 16.3744 4.4667 16.1081V15.1595C4.4667 14.8935 4.24982 14.6766 3.9837 14.6766H3.82669C3.45678 14.6766 3.10739 14.5144 2.8674 14.2323C2.63029 13.9528 2.52834 13.5859 2.58733 13.2254C2.92033 11.2108 3.67705 9.33423 4.83743 7.64763C5.04767 7.34166 5.38171 7.14656 5.75243 7.11238C6.12529 7.07953 6.49144 7.211 6.75579 7.47549L6.90461 7.62431C7.09322 7.81299 7.39987 7.81299 7.58803 7.62431L8.25883 6.95315C8.44744 6.7644 8.44744 6.45813 8.25883 6.26952L8.08624 6.09686C7.82433 5.83555 7.69256 5.47457 7.72371 5.106C7.7545 4.7361 7.94709 4.39934 8.25094 4.18394C9.93558 2.98801 11.8189 2.20045 13.8474 1.8431C14.2094 1.77947 14.5793 1.87861 14.8625 2.11623C15.1484 2.35628 15.3117 2.70722 15.3117 3.08029V3.34899C15.3117 3.61555 15.5285 3.8322 15.7952 3.8322L16.7441 3.83206C17.0105 3.83206 17.2271 3.61518 17.2271 3.34877V3.08007C17.2271 2.70759 17.391 2.35628 17.6768 2.11608C17.9596 1.87846 18.3299 1.77947 18.692 1.84295C20.7205 2.20031 22.6038 2.98787 24.2884 4.18379C24.5919 4.39934 24.7845 4.73543 24.8157 5.10585C24.8464 5.47443 24.7147 5.83584 24.4531 6.09671L24.28 6.26967C24.1889 6.36098 24.1386 6.48212 24.1386 6.61115C24.1386 6.74056 24.1889 6.86169 24.28 6.95293L24.9508 7.62408C25.1399 7.81284 25.4464 7.81284 25.6346 7.62408L25.7834 7.47527C26.0479 7.21085 26.4134 7.07761 26.7868 7.11275C27.1571 7.14641 27.491 7.34166 27.7018 7.64749C28.8621 9.33371 29.6193 11.2103 29.9515 13.2253C30.0109 13.5856 29.9091 13.9529 29.6714 14.2326C29.432 14.5142 29.0826 14.6766 28.7122 14.6766H28.5558C28.2892 14.6766 28.0724 14.8935 28.0724 15.1595V16.1081C28.0724 16.3746 28.2892 16.5913 28.5558 16.5913H28.6651C29.039 16.5913 29.3905 16.7566 29.6292 17.0443C29.8697 17.3343 29.9669 17.7132 29.8971 18.0835C29.5259 20.0548 28.7467 21.8856 27.5807 23.525C27.3678 23.825 27.0342 24.0149 26.667 24.0456C26.2966 24.0772 25.935 23.9444 25.6732 23.682L25.6346 23.6437C25.4459 23.4549 25.1394 23.4549 24.9508 23.6437L24.28 24.3143C24.0919 24.503 24.0919 24.8096 24.28 24.9978L24.2943 25.0121C24.5593 25.2769 24.6916 25.643 24.6573 26.0159C24.6236 26.3863 24.4288 26.7194 24.123 26.9297C22.4835 28.0586 20.6613 28.8068 18.7071 29.1533C18.338 29.2188 17.9617 29.1187 17.6751 28.8781C17.391 28.6397 17.2274 28.2905 17.2274 27.9188C17.2274 27.6522 17.0106 27.4355 16.7445 27.4355L15.7954 27.4357C15.5287 27.4357 15.3119 27.6526 15.3119 27.919C15.3119 28.2902 15.1488 28.6398 14.8643 28.8782C14.6358 29.0709 14.3492 29.1729 14.0552 29.1729ZM7.24675 22.7315C7.56765 22.7315 7.88891 22.8536 8.13363 23.0986L8.80443 23.7692C9.29363 24.2585 9.29363 25.0543 8.80443 25.5437L8.79047 25.558C8.68823 25.66 8.63693 25.8016 8.65 25.9457C8.66343 26.0898 8.7354 26.2139 8.85425 26.2953C10.4023 27.3611 12.1229 28.0676 13.9676 28.3948C14.112 28.4209 14.2585 28.3819 14.3697 28.2883C14.4807 28.1953 14.5414 28.0642 14.5414 27.9198C14.5414 27.2278 15.1042 26.6655 15.7964 26.6655L16.7449 26.6651C17.4366 26.6651 17.9994 27.228 17.9994 27.9194C17.9994 28.064 18.061 28.195 18.1711 28.2881C18.2826 28.3816 18.4291 28.42 18.5732 28.3945C20.4183 28.0674 22.139 27.3607 23.687 26.295C23.8049 26.2138 23.8773 26.0895 23.8908 25.9454C23.9042 25.8013 23.8531 25.6598 23.7507 25.5577L23.7364 25.5434C23.2472 25.0541 23.2472 24.2583 23.7364 23.7689L24.4072 23.0982C24.8964 22.6089 25.6925 22.6089 26.1812 23.0982L26.2197 23.1367C26.3206 23.2374 26.4603 23.2889 26.6039 23.2768C26.7469 23.2652 26.8713 23.1942 26.9543 23.0778C28.0548 21.5296 28.7902 19.801 29.1416 17.9399C29.169 17.7954 29.1311 17.6479 29.0375 17.5353C28.9447 17.4228 28.8128 17.3613 28.6671 17.3613L28.558 17.3619C27.8658 17.3619 27.303 16.799 27.303 16.1075V15.1591C27.303 14.4676 27.8658 13.905 28.558 13.905H28.7145C28.8575 13.905 28.9933 13.8422 29.0857 13.7333C29.1776 13.6252 29.2153 13.4893 29.1924 13.3503C28.8783 11.4482 28.1638 9.67682 27.0685 8.08449C26.9871 7.96594 26.8622 7.8933 26.7178 7.87987C26.5739 7.86695 26.4325 7.91751 26.3297 8.01968L26.1809 8.1685C25.6921 8.65784 24.896 8.65747 24.4069 8.1685L23.7361 7.49786C23.2468 7.00859 23.2468 6.21283 23.7361 5.72335L23.9092 5.55061C24.0106 5.44889 24.0604 5.31351 24.048 5.16993C24.0363 5.02636 23.9613 4.8957 23.8429 4.81162C22.2519 3.68228 20.4742 2.93849 18.5588 2.60143C18.4191 2.5767 18.2826 2.61405 18.1728 2.70574C18.0622 2.79882 17.9989 2.9342 17.9989 3.07881V3.34751C17.9989 4.03941 17.4361 4.60183 16.7445 4.60183H15.7954C15.1033 4.60183 14.5405 4.03889 14.5405 3.34751V3.07881C14.5405 2.9342 14.4772 2.79882 14.3665 2.70574C14.2573 2.61405 14.1202 2.57692 13.9811 2.60143C12.0657 2.93849 10.2875 3.68228 8.69687 4.81162C8.57854 4.89555 8.50398 5.02621 8.49136 5.16993C8.47925 5.31321 8.52871 5.44911 8.63051 5.55061L8.8031 5.72335C9.2926 6.21261 9.2926 7.00837 8.8031 7.49786L8.1323 8.1685C7.64354 8.65747 6.84739 8.65784 6.35833 8.1685L6.20951 8.01968C6.10756 7.91766 5.96576 7.86651 5.82144 7.87987C5.67705 7.89279 5.55296 7.96557 5.47102 8.08449C4.37523 9.67682 3.66014 11.4482 3.34663 13.3503C3.32367 13.4889 3.36191 13.625 3.45382 13.7333C3.54661 13.8424 3.68148 13.905 3.82454 13.905H3.98156C4.67317 13.905 5.23598 14.4679 5.23598 15.1591V16.1075C5.23598 16.7994 4.67318 17.3619 3.98156 17.3619H3.87223C3.72607 17.3619 3.59474 17.4237 3.50187 17.5359C3.40894 17.6481 3.3704 17.7959 3.39823 17.9405C3.74902 19.8015 4.48486 21.5301 5.58507 23.0783C5.66782 23.1947 5.79273 23.2657 5.9355 23.2773C6.07856 23.2894 6.21823 23.2379 6.31965 23.1372L6.35819 23.0987C6.60445 22.8536 6.92534 22.7315 7.24675 22.7315Z" fill="#43658B"/>
<path fill-rule="evenodd" clip-rule="evenodd" d="M20.8191 21.5899C19.7563 21.5899 18.8916 20.725 18.8916 19.6623C18.8916 18.5996 19.7563 17.7347 20.8191 17.7347C21.882 17.7347 22.7467 18.5996 22.7467 19.6623C22.7467 20.725 21.882 21.5899 20.8191 21.5899ZM20.8191 18.5061C20.1813 18.5061 19.6627 19.0248 19.6627 19.6627C19.6627 20.3005 20.1813 20.8192 20.8191 20.8192C21.457 20.8192 21.9761 20.3005 21.9761 19.6627C21.9761 19.0248 21.4567 18.5061 20.8191 18.5061Z" fill="#43658B"/>
<path fill-rule="evenodd" clip-rule="evenodd" d="M12.3373 16.9633C10.849 16.9633 9.63834 15.7526 9.63834 14.2646C9.63834 12.7771 10.849 11.5664 12.3373 11.5664C13.8256 11.5664 15.0363 12.7771 15.0363 14.2646C15.0363 15.7527 13.8256 16.9633 12.3373 16.9633ZM12.3373 12.337C11.2744 12.337 10.4098 13.202 10.4098 14.2646C10.4098 15.3278 11.2744 16.1922 12.3373 16.1922C13.4001 16.1922 14.2652 15.3278 14.2652 14.2646C14.2657 13.202 13.4001 12.337 12.3373 12.337Z" fill="#43658B"/>
<path fill-rule="evenodd" clip-rule="evenodd" d="M20.434 14.6502C19.5836 14.6502 18.8916 13.9583 18.8916 13.1081C18.8916 12.2579 19.5836 11.5664 20.434 11.5664C21.2842 11.5664 21.9764 12.2584 21.9764 13.1081C21.9765 13.9588 21.2844 14.6502 20.434 14.6502ZM20.434 12.3372C20.009 12.3372 19.663 12.6834 19.663 13.1083C19.663 13.5332 20.009 13.8794 20.434 13.8794C20.8589 13.8794 21.2049 13.5332 21.2049 13.1083C21.2049 12.6834 20.8594 12.3372 20.434 12.3372Z" fill="#43658B"/>
<path fill-rule="evenodd" clip-rule="evenodd" d="M10.6795 21.7825C10.5981 21.7825 10.517 21.7569 10.4472 21.7047C10.2772 21.5761 10.2438 21.3347 10.3721 21.1646L11.6826 19.4295C11.8114 19.2594 12.053 19.2258 12.2229 19.3543C12.3929 19.4828 12.4263 19.7242 12.298 19.8943L10.9875 21.6294C10.9116 21.7297 10.7962 21.7825 10.6795 21.7825Z" fill="#43658B"/>
<path fill-rule="evenodd" clip-rule="evenodd" d="M18.352 16.7705C18.2631 16.7705 18.1733 16.7397 18.1004 16.677L16.7126 15.4819C16.5514 15.343 16.5332 15.0994 16.6719 14.9379C16.8105 14.7765 17.0544 14.7584 17.2156 14.8972L18.6033 16.0924C18.7651 16.2312 18.7828 16.4749 18.6441 16.6362C18.568 16.7252 18.4603 16.7705 18.352 16.7705Z" fill="#43658B"/>
<path fill-rule="evenodd" clip-rule="evenodd" d="M19.0075 23.5176H16.9641C16.7512 23.5176 16.5781 23.3449 16.5781 23.1317C16.5781 22.9184 16.7507 22.7462 16.9641 22.7462L19.0075 22.746C19.2204 22.746 19.3935 22.9182 19.3935 23.1315C19.3935 23.3448 19.2204 23.5176 19.0075 23.5176Z" fill="#43658B"/>
<path fill-rule="evenodd" clip-rule="evenodd" d="M19.2773 10.4862C19.1728 10.4862 19.0687 10.4438 18.9925 10.3608C18.849 10.2037 18.8597 9.95955 19.0173 9.81598L20.3668 8.58196C20.5237 8.43868 20.7678 8.44916 20.9113 8.60661C21.0549 8.76414 21.0444 9.00781 20.8866 9.15139L19.5376 10.3854C19.4634 10.453 19.3701 10.4862 19.2773 10.4862Z" fill="#43658B"/>
<path fill-rule="evenodd" clip-rule="evenodd" d="M29.687 4.62677C28.4118 4.62677 27.3735 3.58911 27.3735 2.31324C27.3735 1.0381 28.4115 0 29.687 0C30.9624 0 32 1.03766 32 2.31324C32 3.58911 30.9622 4.62677 29.687 4.62677ZM29.687 0.771554C28.8362 0.771554 28.1446 1.46352 28.1446 2.31324C28.1446 3.16392 28.8362 3.85538 29.687 3.85538C30.5373 3.85538 31.229 3.16348 31.229 2.31324C31.2289 1.4633 30.5373 0.771554 29.687 0.771554Z" fill="#43658B"/>
<path fill-rule="evenodd" clip-rule="evenodd" d="M2.699 32C1.21072 32 0 30.7893 0 29.3013C0 27.8133 1.21072 26.6026 2.699 26.6026C4.18729 26.6026 5.39793 27.8133 5.39793 29.3013C5.39793 30.7893 4.18677 32 2.699 32ZM2.699 27.3735C1.63615 27.3735 0.771498 28.238 0.771498 29.3011C0.771498 30.3638 1.63615 31.2287 2.699 31.2287C3.76186 31.2287 4.62651 30.3638 4.62651 29.3011C4.62651 28.2382 3.76186 27.3735 2.699 27.3735Z" fill="#43658B"/>
</svg>
